<svg width="398" height="79" viewBox="0 0 398 79" fill="none" xmlns="http://www.w3.org/2000/svg">
<rect width="398" height="79" rx="2" fill="#FF2B2B"/>
<path d="M40.3093 42.3525L33.4521 49.2096C33.3629 49.29 33.2602 49.3301 33.1441 49.3301C33.028 49.3301 32.9254 49.29 32.8361 49.2096L28.9789 45.3525C28.8986 45.2632 28.8584 45.1605 28.8584 45.0444C28.8584 44.9284 28.8986 44.8301 28.9789 44.7498L29.595 44.1337C29.6754 44.0534 29.7736 44.0132 29.8896 44.0132C30.0057 44.0132 30.1084 44.0534 30.1977 44.1337L33.1441 47.0801L39.0905 41.1337C39.1798 41.0534 39.2825 41.0132 39.3986 41.0132C39.5146 41.0132 39.6129 41.0534 39.6932 41.1337L40.3093 41.7498C40.3896 41.8301 40.4298 41.9284 40.4298 42.0444C40.4298 42.1605 40.3896 42.2632 40.3093 42.3525ZM24.5727 51.7275H43.4298V38.0132H24.5727V51.7275ZM29.7155 35.4418V31.5846C29.7155 31.4596 29.6754 31.3569 29.595 31.2766C29.5146 31.1962 29.412 31.156 29.287 31.156H28.4298C28.3048 31.156 28.2021 31.1962 28.1218 31.2766C28.0414 31.3569 28.0013 31.4596 28.0013 31.5846V35.4418C28.0013 35.5668 28.0414 35.6694 28.1218 35.7498C28.2021 35.8301 28.3048 35.8703 28.4298 35.8703H29.287C29.412 35.8703 29.5146 35.8301 29.595 35.7498C29.6754 35.6694 29.7155 35.5668 29.7155 35.4418ZM40.0013 35.4418V31.5846C40.0013 31.4596 39.9611 31.3569 39.8807 31.2766C39.8004 31.1962 39.6977 31.156 39.5727 31.156H38.7155C38.5905 31.156 38.4879 31.1962 38.4075 31.2766C38.3271 31.3569 38.287 31.4596 38.287 31.5846V35.4418C38.287 35.5668 38.3271 35.6694 38.4075 35.7498C38.4879 35.8301 38.5905 35.8703 38.7155 35.8703H39.5727C39.6977 35.8703 39.8004 35.8301 39.8807 35.7498C39.9611 35.6694 40.0013 35.5668 40.0013 35.4418ZM45.1441 34.5846V51.7275C45.1441 52.1918 44.9745 52.5935 44.6352 52.9328C44.2959 53.2721 43.8941 53.4418 43.4298 53.4418H24.5727C24.1084 53.4418 23.7066 53.2721 23.3673 52.9328C23.028 52.5935 22.8584 52.1918 22.8584 51.7275V34.5846C22.8584 34.1203 23.028 33.7185 23.3673 33.3793C23.7066 33.04 24.1084 32.8703 24.5727 32.8703H26.287V31.5846C26.287 30.9953 26.4968 30.4909 26.9164 30.0712C27.3361 29.6516 27.8405 29.4418 28.4298 29.4418H29.287C29.8763 29.4418 30.3807 29.6516 30.8004 30.0712C31.22 30.4909 31.4298 30.9953 31.4298 31.5846V32.8703H36.5727V31.5846C36.5727 30.9953 36.7825 30.4909 37.2021 30.0712C37.6218 29.6516 38.1263 29.4418 38.7155 29.4418H39.5727C40.162 29.4418 40.6664 29.6516 41.0861 30.0712C41.5057 30.4909 41.7155 30.9953 41.7155 31.5846V32.8703H43.4298C43.8941 32.8703 44.2959 33.04 44.6352 33.3793C44.9745 33.7185 45.1441 34.1203 45.1441 34.5846Z" fill="white"/>
<path d="M70.7264 41.7389C71.4464 42.0909 72.0064 42.5789 72.4064 43.2029C72.8064 43.8269 73.0064 44.5549 73.0064 45.3869C73.0064 46.3789 72.7584 47.2509 72.2624 48.0029C71.7664 48.7389 71.0624 49.3149 70.1504 49.7309C69.2544 50.1469 68.1984 50.3549 66.9824 50.3549C65.5744 50.3549 64.3264 50.0269 63.2384 49.3709C62.1504 48.7149 61.3184 47.8189 60.7424 46.6829L62.9984 45.0509C64.0224 46.5869 65.3424 47.3549 66.9584 47.3549C67.7744 47.3549 68.4544 47.1629 68.9984 46.7789C69.5424 46.3949 69.8144 45.8749 69.8144 45.2189C69.8144 44.6429 69.5984 44.1789 69.1664 43.8269C68.7344 43.4749 68.0944 43.2989 67.2464 43.2989H65.1584V40.6349H67.0064C67.6784 40.6349 68.1984 40.4669 68.5664 40.1309C68.9344 39.7949 69.1184 39.3549 69.1184 38.8109C69.1184 38.2509 68.9184 37.8029 68.5184 37.4669C68.1344 37.1149 67.5904 36.9389 66.8864 36.9389C65.4944 36.9389 64.3984 37.6269 63.5984 39.0029L61.3424 37.3949C61.8864 36.3069 62.6464 35.4589 63.6224 34.8509C64.5984 34.2429 65.7424 33.9389 67.0544 33.9389C68.6704 33.9389 69.9504 34.3549 70.8944 35.1869C71.8384 36.0029 72.3104 37.1229 72.3104 38.5469C72.3104 39.1869 72.1664 39.7789 71.8784 40.3229C71.6064 40.8669 71.2224 41.3389 70.7264 41.7389ZM84.8414 48.0029H78.3614L77.4734 50.0669H73.9934L81.0734 33.9389H82.1534L89.2094 50.0669H85.7294L84.8414 48.0029ZM81.6014 39.9869L79.4894 45.3389H83.7134L81.6014 39.9869ZM91.3725 34.2269H104.621V50.0669H101.381V37.1549H94.6125V50.0669H91.3725V34.2269ZM121.832 33.9389V50.0669H118.592V40.2509L109.304 50.3549H108.248V34.2269H111.488V43.9469L120.752 33.9389H121.832ZM132.963 50.3549C131.411 50.3549 129.987 49.9949 128.691 49.2749C127.411 48.5549 126.395 47.5709 125.643 46.3229C124.907 45.0589 124.539 43.6669 124.539 42.1469C124.539 40.6269 124.915 39.2429 125.667 37.9949C126.419 36.7309 127.435 35.7389 128.715 35.0189C130.011 34.2989 131.435 33.9389 132.987 33.9389C134.491 33.9389 135.851 34.2909 137.067 34.9949C138.299 35.6829 139.267 36.6429 139.971 37.8749L137.523 39.6029C136.403 37.8269 134.891 36.9389 132.987 36.9389C132.011 36.9389 131.131 37.1629 130.347 37.6109C129.579 38.0589 128.971 38.6829 128.523 39.4829C128.091 40.2669 127.875 41.1629 127.875 42.1709C127.875 43.1789 128.091 44.0749 128.523 44.8589C128.971 45.6429 129.579 46.2589 130.347 46.7069C131.131 47.1389 132.011 47.3549 132.987 47.3549C134.891 47.3549 136.403 46.4669 137.523 44.6909L139.971 46.4189C139.283 47.6509 138.323 48.6189 137.091 49.3229C135.859 50.0109 134.483 50.3549 132.963 50.3549ZM152.06 48.0029H145.58L144.692 50.0669H141.212L148.292 33.9389H149.372L156.428 50.0669H152.948L152.06 48.0029ZM148.82 39.9869L146.708 45.3389H150.932L148.82 39.9869ZM160.363 37.1549H155.299V34.2269H168.691V37.1549H163.603V50.0669H160.363V37.1549ZM170.826 34.2269H174.066V39.6749H176.946C178.066 39.6749 179.066 39.8989 179.946 40.3469C180.826 40.7789 181.506 41.3869 181.986 42.1709C182.482 42.9549 182.73 43.8509 182.73 44.8589C182.73 45.8989 182.482 46.8109 181.986 47.5949C181.506 48.3789 180.826 48.9869 179.946 49.4189C179.066 49.8509 178.066 50.0669 176.946 50.0669H170.826V34.2269ZM176.946 47.2109C177.714 47.2109 178.314 47.0029 178.746 46.5869C179.194 46.1549 179.418 45.5869 179.418 44.8829C179.418 44.1789 179.194 43.6109 178.746 43.1789C178.314 42.7309 177.714 42.5069 176.946 42.5069H174.066V47.2109H176.946ZM193.01 50.3549C191.458 50.3549 190.034 49.9949 188.738 49.2749C187.458 48.5549 186.442 47.5709 185.69 46.3229C184.954 45.0589 184.586 43.6669 184.586 42.1469C184.586 40.6269 184.962 39.2429 185.714 37.9949C186.466 36.7309 187.482 35.7389 188.762 35.0189C190.058 34.2989 191.482 33.9389 193.034 33.9389C194.538 33.9389 195.898 34.2909 197.114 34.9949C198.346 35.6829 199.314 36.6429 200.018 37.8749L197.57 39.6029C196.45 37.8269 194.938 36.9389 193.034 36.9389C192.058 36.9389 191.178 37.1629 190.394 37.6109C189.626 38.0589 189.018 38.6829 188.57 39.4829C188.138 40.2669 187.922 41.1629 187.922 42.1709C187.922 43.1789 188.138 44.0749 188.57 44.8589C189.018 45.6429 189.626 46.2589 190.394 46.7069C191.178 47.1389 192.058 47.3549 193.034 47.3549C194.938 47.3549 196.45 46.4669 197.57 44.6909L200.018 46.4189C199.33 47.6509 198.37 48.6189 197.138 49.3229C195.906 50.0109 194.53 50.3549 193.01 50.3549ZM213.939 34.2269V50.0669H210.699V44.8109H208.635L204.939 50.0669H201.459L205.515 44.2589C204.507 43.8269 203.707 43.1949 203.115 42.3629C202.539 41.5309 202.251 40.5789 202.251 39.5069C202.251 38.4669 202.507 37.5469 203.019 36.7469C203.531 35.9469 204.243 35.3309 205.155 34.8989C206.083 34.4509 207.147 34.2269 208.347 34.2269H213.939ZM210.699 37.0829H208.251C207.451 37.0829 206.803 37.3069 206.307 37.7549C205.811 38.2029 205.563 38.7949 205.563 39.5309C205.563 40.2669 205.811 40.8589 206.307 41.3069C206.803 41.7389 207.451 41.9549 208.251 41.9549H210.699V37.0829ZM224.31 34.2269H227.55V40.2989H234.558V34.2269H237.798V50.0669H234.558V43.2269H227.55V50.0669H224.31V34.2269ZM250.755 48.0029H244.275L243.387 50.0669H239.907L246.987 33.9389H248.067L255.123 50.0669H251.643L250.755 48.0029ZM247.515 39.9869L245.403 45.3389H249.627L247.515 39.9869ZM262.818 34.2269H276.066V50.0669H272.826V37.1549H266.058V50.0669H262.818V34.2269ZM279.693 34.2269H285.645C286.749 34.2269 287.733 34.4429 288.597 34.8749C289.461 35.2909 290.133 35.8909 290.613 36.6749C291.109 37.4429 291.357 38.3309 291.357 39.3389C291.357 40.3469 291.109 41.2429 290.613 42.0269C290.133 42.7949 289.461 43.3949 288.597 43.8269C287.733 44.2589 286.749 44.4749 285.645 44.4749H282.933V50.0669H279.693V34.2269ZM285.645 41.6429C286.397 41.6429 286.981 41.4349 287.397 41.0189C287.829 40.5869 288.045 40.0269 288.045 39.3389C288.045 38.6669 287.829 38.1229 287.397 37.7069C286.965 37.2909 286.381 37.0829 285.645 37.0829H282.933V41.6429H285.645ZM307.527 33.9389V50.0669H304.287V40.2509L294.999 50.3549H293.943V34.2269H297.183V43.9469L306.447 33.9389H307.527ZM311.146 34.2269H321.802V37.1549H314.386V40.3709H319.834V43.1309H314.386V47.1389H322.09V50.0669H311.146V34.2269ZM313.282 32.3789C312.786 32.3789 312.338 32.1949 311.938 31.8269C311.554 31.4429 311.362 31.0109 311.362 30.5309C311.362 30.0029 311.554 29.5629 311.938 29.2109C312.322 28.8429 312.77 28.6589 313.282 28.6589C313.826 28.6589 314.29 28.8429 314.674 29.2109C315.058 29.5629 315.25 30.0029 315.25 30.5309C315.25 31.0269 315.058 31.4589 314.674 31.8269C314.29 32.1949 313.826 32.3789 313.282 32.3789ZM319.498 32.4029C319.002 32.4029 318.554 32.2189 318.154 31.8509C317.754 31.4669 317.554 31.0349 317.554 30.5549C317.554 30.0269 317.746 29.5789 318.13 29.2109C318.53 28.8429 318.986 28.6589 319.498 28.6589C320.026 28.6589 320.482 28.8429 320.866 29.2109C321.25 29.5789 321.442 30.0269 321.442 30.5549C321.442 31.0509 321.25 31.4829 320.866 31.8509C320.482 32.2189 320.026 32.4029 319.498 32.4029ZM340.408 33.9389V50.0669H337.168V41.6189L333.184 46.6109H332.128L328.144 41.6189V50.0669H324.904V33.9389H325.96L332.656 42.5069L339.352 33.9389H340.408Z" fill="white"/>
</svg>
