<svg width="333" height="75" viewBox="0 0 333 75" fill="none" xmlns="http://www.w3.org/2000/svg">
<g filter="url(#filter0_d_2073_175)">
<rect x="5" y="1" width="323" height="65" fill="white"/>
</g>
<path d="M42.518 28.38H38.342V27.12H48.116V28.38H43.922V39H42.518V28.38ZM56.3755 35.04H49.4455C49.5295 35.904 49.8715 36.6 50.4715 37.128C51.0715 37.656 51.8035 37.92 52.6675 37.92C53.6635 37.92 54.5575 37.524 55.3495 36.732L56.1595 37.668C55.7035 38.148 55.1755 38.526 54.5755 38.802C53.9875 39.066 53.3455 39.198 52.6495 39.198C51.7855 39.198 50.9995 39 50.2915 38.604C49.5835 38.196 49.0255 37.644 48.6175 36.948C48.2095 36.252 48.0055 35.478 48.0055 34.626C48.0055 33.786 48.2035 33.018 48.5995 32.322C48.9955 31.614 49.5355 31.056 50.2195 30.648C50.9035 30.24 51.6595 30.036 52.4875 30.036C53.2315 30.036 53.9095 30.204 54.5215 30.54C55.1335 30.876 55.6135 31.344 55.9615 31.944C56.3095 32.544 56.4835 33.228 56.4835 33.996C56.4835 34.332 56.4475 34.68 56.3755 35.04ZM52.4515 31.296C51.7195 31.296 51.0835 31.53 50.5435 31.998C50.0035 32.454 49.6555 33.06 49.4995 33.816H55.0615C55.0495 33.036 54.7915 32.424 54.2875 31.98C53.7955 31.524 53.1835 31.296 52.4515 31.296ZM65.5427 30.234V39H64.1567V31.476H60.8987L60.8627 32.556C60.8147 34.092 60.7007 35.328 60.5207 36.264C60.3407 37.2 60.0527 37.902 59.6567 38.37C59.2607 38.838 58.7207 39.072 58.0367 39.072C57.8687 39.072 57.7127 39.048 57.5687 39V37.83C57.7127 37.854 57.8327 37.866 57.9287 37.866C58.4927 37.866 58.8947 37.428 59.1347 36.552C59.3747 35.664 59.5127 34.32 59.5487 32.52L59.6027 30.234H65.5427ZM76.3442 35.04H69.4142C69.4982 35.904 69.8402 36.6 70.4402 37.128C71.0402 37.656 71.7722 37.92 72.6362 37.92C73.6322 37.92 74.5262 37.524 75.3182 36.732L76.1282 37.668C75.6722 38.148 75.1442 38.526 74.5442 38.802C73.9562 39.066 73.3142 39.198 72.6182 39.198C71.7542 39.198 70.9682 39 70.2602 38.604C69.5522 38.196 68.9942 37.644 68.5862 36.948C68.1782 36.252 67.9742 35.478 67.9742 34.626C67.9742 33.786 68.1722 33.018 68.5682 32.322C68.9642 31.614 69.5042 31.056 70.1882 30.648C70.8722 30.24 71.6282 30.036 72.4562 30.036C73.2002 30.036 73.8782 30.204 74.4902 30.54C75.1022 30.876 75.5822 31.344 75.9302 31.944C76.2782 32.544 76.4522 33.228 76.4522 33.996C76.4522 34.332 76.4162 34.68 76.3442 35.04ZM72.4202 31.296C71.6882 31.296 71.0522 31.53 70.5122 31.998C69.9722 32.454 69.6242 33.06 69.4682 33.816H75.0302C75.0182 33.036 74.7602 32.424 74.2562 31.98C73.7642 31.524 73.1522 31.296 72.4202 31.296ZM89.5434 34.644C89.5434 35.544 89.3274 36.336 88.8954 37.02C88.4754 37.692 87.8874 38.214 87.1314 38.586C86.3874 38.958 85.5414 39.162 84.5934 39.198V42.24H83.2074V39.198C82.2474 39.162 81.3894 38.958 80.6334 38.586C79.8894 38.202 79.3074 37.674 78.8874 37.002C78.4674 36.318 78.2574 35.526 78.2574 34.626C78.2574 33.726 78.4674 32.94 78.8874 32.268C79.3194 31.596 79.9074 31.074 80.6514 30.702C81.4074 30.318 82.2594 30.108 83.2074 30.072V25.5H84.5934V30.072C85.5534 30.108 86.4054 30.318 87.1494 30.702C87.9054 31.074 88.4934 31.602 88.9134 32.286C89.3334 32.958 89.5434 33.744 89.5434 34.644ZM79.6794 34.644C79.6794 35.652 79.9974 36.45 80.6334 37.038C81.2694 37.614 82.1334 37.926 83.2254 37.974V31.296C82.1334 31.344 81.2694 31.662 80.6334 32.25C79.9974 32.838 79.6794 33.636 79.6794 34.644ZM84.5754 37.974C85.6674 37.926 86.5314 37.608 87.1674 37.02C87.8034 36.432 88.1214 35.634 88.1214 34.626C88.1214 33.618 87.8034 32.826 87.1674 32.25C86.5314 31.662 85.6674 31.344 84.5754 31.296V37.974ZM95.9075 39.18C95.0675 39.18 94.2995 38.976 93.6035 38.568C92.9075 38.16 92.3555 37.608 91.9475 36.912C91.5395 36.204 91.3355 35.436 91.3355 34.608C91.3355 33.768 91.5395 33 91.9475 32.304C92.3555 31.596 92.9075 31.044 93.6035 30.648C94.3115 30.24 95.0855 30.036 95.9255 30.036C96.7655 30.036 97.5335 30.24 98.2295 30.648C98.9375 31.056 99.4955 31.608 99.9035 32.304C100.312 33 100.516 33.768 100.516 34.608C100.516 35.436 100.312 36.204 99.9035 36.912C99.4955 37.608 98.9375 38.16 98.2295 38.568C97.5215 38.976 96.7475 39.18 95.9075 39.18ZM95.9075 37.902C96.4955 37.902 97.0295 37.758 97.5095 37.47C98.0015 37.182 98.3855 36.792 98.6615 36.3C98.9495 35.796 99.0935 35.238 99.0935 34.626C99.0935 34.002 98.9555 33.438 98.6795 32.934C98.4035 32.43 98.0195 32.034 97.5275 31.746C97.0475 31.458 96.5135 31.314 95.9255 31.314C95.3255 31.314 94.7855 31.458 94.3055 31.746C93.8255 32.034 93.4475 32.43 93.1715 32.934C92.8955 33.438 92.7575 34.002 92.7575 34.626C92.7575 35.238 92.8955 35.796 93.1715 36.3C93.4475 36.792 93.8255 37.182 94.3055 37.47C94.7855 37.758 95.3195 37.902 95.9075 37.902ZM102.952 30.234H104.338V33.726H108.64V30.234H110.026V39H108.64V34.95H104.338V39H102.952V30.234ZM116.389 28.56L118.081 29.712L117.631 30.45L115.795 29.568L115.651 31.602H114.787L114.625 29.568L112.789 30.45L112.357 29.712L114.049 28.56L112.357 27.408L112.789 26.652L114.625 27.534L114.787 25.5H115.651L115.795 27.534L117.631 26.652L118.081 27.408L116.389 28.56Z" fill="black"/>
<defs>
<filter id="filter0_d_2073_175" x="0" y="0" width="333" height="75" filterUnits="userSpaceOnUse" color-interpolation-filters="sRGB">
<feFlood flood-opacity="0" result="BackgroundImageFix"/>
<feColorMatrix in="SourceAlpha" type="matrix" values="0 0 0 0 0 0 0 0 0 0 0 0 0 0 0 0 0 0 127 0" result="hardAlpha"/>
<feOffset dy="4"/>
<feGaussianBlur stdDeviation="2.5"/>
<feColorMatrix type="matrix" values="0 0 0 0 0 0 0 0 0 0 0 0 0 0 0 0 0 0 0.06 0"/>
<feBlend mode="normal" in2="BackgroundImageFix" result="effect1_dropShadow_2073_175"/>
<feBlend mode="normal" in="SourceGraphic" in2="effect1_dropShadow_2073_175" result="shape"/>
</filter>
</defs>
</svg>
