<svg width="326" height="75" viewBox="0 0 326 75" fill="none" xmlns="http://www.w3.org/2000/svg">
<g filter="url(#filter0_d_2073_171)">
<rect x="5" y="1" width="316" height="65" fill="white"/>
</g>
<path d="M45.974 32.466C46.706 32.682 47.276 33.066 47.684 33.618C48.092 34.158 48.296 34.812 48.296 35.58C48.296 36.24 48.146 36.828 47.846 37.344C47.546 37.86 47.108 38.268 46.532 38.568C45.968 38.856 45.302 39 44.534 39H39.638V27.12H43.724C44.756 27.12 45.578 27.402 46.19 27.966C46.802 28.53 47.108 29.25 47.108 30.126C47.108 30.618 47.006 31.062 46.802 31.458C46.61 31.854 46.334 32.19 45.974 32.466ZM41.042 28.38V32.07H43.58C44.252 32.07 44.768 31.902 45.128 31.566C45.488 31.23 45.668 30.78 45.668 30.216C45.668 29.652 45.488 29.208 45.128 28.884C44.78 28.548 44.264 28.38 43.58 28.38H41.042ZM44.39 37.74C45.17 37.74 45.776 37.542 46.208 37.146C46.64 36.738 46.856 36.204 46.856 35.544C46.856 34.884 46.64 34.356 46.208 33.96C45.776 33.552 45.17 33.348 44.39 33.348H41.042V37.74H44.39ZM53.7718 30.036C54.8038 30.036 55.6318 30.342 56.2558 30.954C56.8798 31.566 57.1918 32.448 57.1918 33.6V39H55.8958V37.866C55.5718 38.298 55.1578 38.628 54.6538 38.856C54.1498 39.084 53.5798 39.198 52.9438 39.198C52.0438 39.198 51.3058 38.976 50.7298 38.532C50.1658 38.088 49.8838 37.488 49.8838 36.732C49.8838 35.988 50.1718 35.394 50.7478 34.95C51.3238 34.506 52.0858 34.284 53.0338 34.284H55.8058V33.528C55.8058 32.808 55.6138 32.262 55.2298 31.89C54.8578 31.506 54.3418 31.314 53.6818 31.314C53.1538 31.314 52.6858 31.434 52.2778 31.674C51.8698 31.902 51.4858 32.25 51.1258 32.718L50.2078 31.962C50.6038 31.314 51.1138 30.834 51.7378 30.522C52.3618 30.198 53.0398 30.036 53.7718 30.036ZM53.1238 38.046C53.6038 38.046 54.0478 37.944 54.4558 37.74C54.8638 37.524 55.1878 37.23 55.4278 36.858C55.6798 36.486 55.8058 36.078 55.8058 35.634V35.418H53.1958C52.5838 35.418 52.1158 35.526 51.7918 35.742C51.4678 35.946 51.3058 36.252 51.3058 36.66C51.3058 37.104 51.4798 37.446 51.8278 37.686C52.1758 37.926 52.6078 38.046 53.1238 38.046ZM60.1316 30.234H61.5176V37.776H65.1896V30.234H66.5756V37.776H70.2656V30.234H71.6516V39H60.1316V30.234ZM82.4263 35.04H75.4963C75.5803 35.904 75.9223 36.6 76.5223 37.128C77.1223 37.656 77.8543 37.92 78.7183 37.92C79.7143 37.92 80.6083 37.524 81.4003 36.732L82.2103 37.668C81.7543 38.148 81.2263 38.526 80.6263 38.802C80.0383 39.066 79.3963 39.198 78.7003 39.198C77.8363 39.198 77.0503 39 76.3423 38.604C75.6343 38.196 75.0763 37.644 74.6683 36.948C74.2603 36.252 74.0563 35.478 74.0563 34.626C74.0563 33.786 74.2543 33.018 74.6503 32.322C75.0463 31.614 75.5863 31.056 76.2703 30.648C76.9543 30.24 77.7103 30.036 78.5383 30.036C79.2823 30.036 79.9603 30.204 80.5723 30.54C81.1843 30.876 81.6643 31.344 82.0123 31.944C82.3603 32.544 82.5343 33.228 82.5343 33.996C82.5343 34.332 82.4983 34.68 82.4263 35.04ZM78.5023 31.296C77.7703 31.296 77.1343 31.53 76.5943 31.998C76.0543 32.454 75.7063 33.06 75.5503 33.816H81.1123C81.1003 33.036 80.8423 32.424 80.3383 31.98C79.8463 31.524 79.2343 31.296 78.5023 31.296ZM97.2504 30.036V39H95.8644V32.808L90.5184 39.198H90.0144V30.234H91.4004V36.444L96.7464 30.036H97.2504ZM100.298 30.036H100.802L104.96 34.968L109.1 30.036H109.586V39H108.2V33.078L105.212 36.642H104.672L101.684 33.078V39H100.298V30.036ZM119.027 30.234V39H117.641V35.796H115.985L113.573 39H111.953L114.509 35.616C113.861 35.424 113.351 35.106 112.979 34.662C112.619 34.206 112.439 33.666 112.439 33.042C112.439 32.19 112.721 31.512 113.285 31.008C113.849 30.492 114.599 30.234 115.535 30.234H119.027ZM117.641 31.476H115.625C115.073 31.476 114.641 31.614 114.329 31.89C114.017 32.166 113.861 32.544 113.861 33.024C113.861 33.492 114.017 33.87 114.329 34.158C114.653 34.434 115.091 34.572 115.643 34.572H117.641V31.476ZM125.424 28.56L127.116 29.712L126.666 30.45L124.83 29.568L124.686 31.602H123.822L123.66 29.568L121.824 30.45L121.392 29.712L123.084 28.56L121.392 27.408L121.824 26.652L123.66 27.534L123.822 25.5H124.686L124.83 27.534L126.666 26.652L127.116 27.408L125.424 28.56Z" fill="black"/>
<defs>
<filter id="filter0_d_2073_171" x="0" y="0" width="326" height="75" filterUnits="userSpaceOnUse" color-interpolation-filters="sRGB">
<feFlood flood-opacity="0" result="BackgroundImageFix"/>
<feColorMatrix in="SourceAlpha" type="matrix" values="0 0 0 0 0 0 0 0 0 0 0 0 0 0 0 0 0 0 127 0" result="hardAlpha"/>
<feOffset dy="4"/>
<feGaussianBlur stdDeviation="2.5"/>
<feColorMatrix type="matrix" values="0 0 0 0 0 0 0 0 0 0 0 0 0 0 0 0 0 0 0.06 0"/>
<feBlend mode="normal" in2="BackgroundImageFix" result="effect1_dropShadow_2073_171"/>
<feBlend mode="normal" in="SourceGraphic" in2="effect1_dropShadow_2073_171" result="shape"/>
</filter>
</defs>
</svg>
