<svg width="296" height="75" viewBox="0 0 296 75" fill="none" xmlns="http://www.w3.org/2000/svg">
<rect width="296" height="75" rx="2" fill="#0EAAB4"/>
<path d="M30.0882 40.2545L24.9453 45.3973C24.8783 45.4576 24.8013 45.4877 24.7143 45.4877C24.6272 45.4877 24.5502 45.4576 24.4833 45.3973L21.5904 42.5045C21.5301 42.4375 21.5 42.3605 21.5 42.2734C21.5 42.1864 21.5301 42.1127 21.5904 42.0525L22.0525 41.5904C22.1127 41.5301 22.1864 41.5 22.2734 41.5C22.3605 41.5 22.4375 41.5301 22.5045 41.5904L24.7143 43.8002L29.1741 39.3404C29.2411 39.2801 29.3181 39.25 29.4051 39.25C29.4922 39.25 29.5658 39.2801 29.6261 39.3404L30.0882 39.8025C30.1484 39.8627 30.1786 39.9364 30.1786 40.0234C30.1786 40.1105 30.1484 40.1875 30.0882 40.2545ZM18.2857 47.2857H32.4286V37H18.2857V47.2857ZM22.1429 35.0714V32.1786C22.1429 32.0848 22.1127 32.0078 22.0525 31.9475C21.9922 31.8873 21.9152 31.8571 21.8214 31.8571H21.1786C21.0848 31.8571 21.0078 31.8873 20.9475 31.9475C20.8873 32.0078 20.8571 32.0848 20.8571 32.1786V35.0714C20.8571 35.1652 20.8873 35.2422 20.9475 35.3025C21.0078 35.3627 21.0848 35.3929 21.1786 35.3929H21.8214C21.9152 35.3929 21.9922 35.3627 22.0525 35.3025C22.1127 35.2422 22.1429 35.1652 22.1429 35.0714ZM29.8571 35.0714V32.1786C29.8571 32.0848 29.827 32.0078 29.7667 31.9475C29.7065 31.8873 29.6295 31.8571 29.5357 31.8571H28.8929C28.7991 31.8571 28.7221 31.8873 28.6618 31.9475C28.6016 32.0078 28.5714 32.0848 28.5714 32.1786V35.0714C28.5714 35.1652 28.6016 35.2422 28.6618 35.3025C28.7221 35.3627 28.7991 35.3929 28.8929 35.3929H29.5357C29.6295 35.3929 29.7065 35.3627 29.7667 35.3025C29.827 35.2422 29.8571 35.1652 29.8571 35.0714ZM33.7143 34.4286V47.2857C33.7143 47.6339 33.5871 47.9353 33.3326 48.1897C33.0781 48.4442 32.7768 48.5714 32.4286 48.5714H18.2857C17.9375 48.5714 17.6362 48.4442 17.3817 48.1897C17.1272 47.9353 17 47.6339 17 47.2857V34.4286C17 34.0804 17.1272 33.779 17.3817 33.5246C17.6362 33.2701 17.9375 33.1429 18.2857 33.1429H19.5714V32.1786C19.5714 31.7366 19.7288 31.3583 20.0435 31.0435C20.3583 30.7288 20.7366 30.5714 21.1786 30.5714H21.8214C22.2634 30.5714 22.6417 30.7288 22.9565 31.0435C23.2712 31.3583 23.4286 31.7366 23.4286 32.1786V33.1429H27.2857V32.1786C27.2857 31.7366 27.4431 31.3583 27.7578 31.0435C28.0725 30.7288 28.4509 30.5714 28.8929 30.5714H29.5357C29.9777 30.5714 30.356 30.7288 30.6708 31.0435C30.9855 31.3583 31.1429 31.7366 31.1429 32.1786V33.1429H32.4286C32.7768 33.1429 33.0781 33.2701 33.3326 33.5246C33.5871 33.779 33.7143 34.0804 33.7143 34.4286Z" fill="white"/>
<path d="M51.7818 39.754C52.3218 40.018 52.7418 40.384 53.0418 40.852C53.3418 41.32 53.4918 41.866 53.4918 42.49C53.4918 43.234 53.3058 43.888 52.9338 44.452C52.5618 45.004 52.0338 45.436 51.3498 45.748C50.6778 46.06 49.8858 46.216 48.9738 46.216C47.9178 46.216 46.9818 45.97 46.1658 45.478C45.3498 44.986 44.7258 44.314 44.2938 43.462L45.9858 42.238C46.7538 43.39 47.7438 43.966 48.9558 43.966C49.5678 43.966 50.0778 43.822 50.4858 43.534C50.8938 43.246 51.0978 42.856 51.0978 42.364C51.0978 41.932 50.9358 41.584 50.6118 41.32C50.2878 41.056 49.8078 40.924 49.1718 40.924H47.6058V38.926H48.9918C49.4958 38.926 49.8858 38.8 50.1618 38.548C50.4378 38.296 50.5758 37.966 50.5758 37.558C50.5758 37.138 50.4258 36.802 50.1258 36.55C49.8378 36.286 49.4298 36.154 48.9018 36.154C47.8578 36.154 47.0358 36.67 46.4358 37.702L44.7438 36.496C45.1518 35.68 45.7218 35.044 46.4538 34.588C47.1858 34.132 48.0438 33.904 49.0278 33.904C50.2398 33.904 51.1998 34.216 51.9078 34.84C52.6158 35.452 52.9698 36.292 52.9698 37.36C52.9698 37.84 52.8618 38.284 52.6458 38.692C52.4418 39.1 52.1538 39.454 51.7818 39.754ZM62.368 44.452H57.508L56.842 46H54.232L59.542 33.904H60.352L65.644 46H63.034L62.368 44.452ZM59.938 38.44L58.354 42.454H61.522L59.938 38.44ZM67.2664 34.12H77.2024V46H74.7724V36.316H69.6964V46H67.2664V34.12ZM90.1107 33.904V46H87.6807V38.638L80.7147 46.216H79.9227V34.12H82.3527V41.41L89.3007 33.904H90.1107ZM98.459 46.216C97.295 46.216 96.227 45.946 95.255 45.406C94.295 44.866 93.533 44.128 92.969 43.192C92.417 42.244 92.141 41.2 92.141 40.06C92.141 38.92 92.423 37.882 92.987 36.946C93.551 35.998 94.313 35.254 95.273 34.714C96.245 34.174 97.313 33.904 98.477 33.904C99.605 33.904 100.625 34.168 101.537 34.696C102.461 35.212 103.187 35.932 103.715 36.856L101.879 38.152C101.039 36.82 99.905 36.154 98.477 36.154C97.745 36.154 97.085 36.322 96.497 36.658C95.921 36.994 95.465 37.462 95.129 38.062C94.805 38.65 94.643 39.322 94.643 40.078C94.643 40.834 94.805 41.506 95.129 42.094C95.465 42.682 95.921 43.144 96.497 43.48C97.085 43.804 97.745 43.966 98.477 43.966C99.905 43.966 101.039 43.3 101.879 41.968L103.715 43.264C103.199 44.188 102.479 44.914 101.555 45.442C100.631 45.958 99.599 46.216 98.459 46.216ZM112.782 44.452H107.922L107.256 46H104.646L109.956 33.904H110.766L116.058 46H113.448L112.782 44.452ZM110.352 38.44L108.768 42.454H111.936L110.352 38.44ZM119.009 36.316H115.211V34.12H125.255V36.316H121.439V46H119.009V36.316ZM126.856 34.12H129.286V38.206H131.446C132.286 38.206 133.036 38.374 133.696 38.71C134.356 39.034 134.866 39.49 135.226 40.078C135.598 40.666 135.784 41.338 135.784 42.094C135.784 42.874 135.598 43.558 135.226 44.146C134.866 44.734 134.356 45.19 133.696 45.514C133.036 45.838 132.286 46 131.446 46H126.856V34.12ZM131.446 43.858C132.022 43.858 132.472 43.702 132.796 43.39C133.132 43.066 133.3 42.64 133.3 42.112C133.3 41.584 133.132 41.158 132.796 40.834C132.472 40.498 132.022 40.33 131.446 40.33H129.286V43.858H131.446ZM143.494 46.216C142.33 46.216 141.262 45.946 140.29 45.406C139.33 44.866 138.568 44.128 138.004 43.192C137.452 42.244 137.176 41.2 137.176 40.06C137.176 38.92 137.458 37.882 138.022 36.946C138.586 35.998 139.348 35.254 140.308 34.714C141.28 34.174 142.348 33.904 143.512 33.904C144.64 33.904 145.66 34.168 146.572 34.696C147.496 35.212 148.222 35.932 148.75 36.856L146.914 38.152C146.074 36.82 144.94 36.154 143.512 36.154C142.78 36.154 142.12 36.322 141.532 36.658C140.956 36.994 140.5 37.462 140.164 38.062C139.84 38.65 139.678 39.322 139.678 40.078C139.678 40.834 139.84 41.506 140.164 42.094C140.5 42.682 140.956 43.144 141.532 43.48C142.12 43.804 142.78 43.966 143.512 43.966C144.94 43.966 146.074 43.3 146.914 41.968L148.75 43.264C148.234 44.188 147.514 44.914 146.59 45.442C145.666 45.958 144.634 46.216 143.494 46.216ZM159.192 34.12V46H156.762V42.058H155.214L152.442 46H149.832L152.874 41.644C152.118 41.32 151.518 40.846 151.074 40.222C150.642 39.598 150.426 38.884 150.426 38.08C150.426 37.3 150.618 36.61 151.002 36.01C151.386 35.41 151.92 34.948 152.604 34.624C153.3 34.288 154.098 34.12 154.998 34.12H159.192ZM156.762 36.262H154.926C154.326 36.262 153.84 36.43 153.468 36.766C153.096 37.102 152.91 37.546 152.91 38.098C152.91 38.65 153.096 39.094 153.468 39.43C153.84 39.754 154.326 39.916 154.926 39.916H156.762V36.262ZM166.97 34.12H169.4V38.674H174.656V34.12H177.086V46H174.656V40.87H169.4V46H166.97V34.12ZM186.804 44.452H181.944L181.278 46H178.668L183.978 33.904H184.788L190.08 46H187.47L186.804 44.452ZM184.374 38.44L182.79 42.454H185.958L184.374 38.44ZM195.85 34.12H205.786V46H203.356V36.316H198.28V46H195.85V34.12ZM208.507 34.12H212.971C213.799 34.12 214.537 34.282 215.185 34.606C215.833 34.918 216.337 35.368 216.697 35.956C217.069 36.532 217.255 37.198 217.255 37.954C217.255 38.71 217.069 39.382 216.697 39.97C216.337 40.546 215.833 40.996 215.185 41.32C214.537 41.644 213.799 41.806 212.971 41.806H210.937V46H208.507V34.12ZM212.971 39.682C213.535 39.682 213.973 39.526 214.285 39.214C214.609 38.89 214.771 38.47 214.771 37.954C214.771 37.45 214.609 37.042 214.285 36.73C213.961 36.418 213.523 36.262 212.971 36.262H210.937V39.682H212.971ZM229.382 33.904V46H226.952V38.638L219.986 46.216H219.194V34.12H221.624V41.41L228.572 33.904H229.382ZM232.097 34.12H240.089V36.316H234.527V38.728H238.613V40.798H234.527V43.804H240.305V46H232.097V34.12ZM233.699 32.734C233.327 32.734 232.991 32.596 232.691 32.32C232.403 32.032 232.259 31.708 232.259 31.348C232.259 30.952 232.403 30.622 232.691 30.358C232.979 30.082 233.315 29.944 233.699 29.944C234.107 29.944 234.455 30.082 234.743 30.358C235.031 30.622 235.175 30.952 235.175 31.348C235.175 31.72 235.031 32.044 234.743 32.32C234.455 32.596 234.107 32.734 233.699 32.734ZM238.361 32.752C237.989 32.752 237.653 32.614 237.353 32.338C237.053 32.05 236.903 31.726 236.903 31.366C236.903 30.97 237.047 30.634 237.335 30.358C237.635 30.082 237.977 29.944 238.361 29.944C238.757 29.944 239.099 30.082 239.387 30.358C239.675 30.634 239.819 30.97 239.819 31.366C239.819 31.738 239.675 32.062 239.387 32.338C239.099 32.614 238.757 32.752 238.361 32.752ZM254.043 33.904V46H251.613V39.664L248.625 43.408H247.833L244.845 39.664V46H242.415V33.904H243.207L248.229 40.33L253.251 33.904H254.043Z" fill="white"/>
</svg>
